Patient4_TMGait_0pt6_02_left_42_EMG.mot
version=1
nRows=16
nColumns=33
inDegrees=no
endheader
time	1LAddLong	2LGlutMax	3LGlutMed	4LIliopsoas	5LSemiMemb	6LBicFemLong	7LRecFem	8LVastMed	9LVastLat	10LGasMed	11LTibAnt	12lTibPost	13LPeroneusLong	14LSol	15LExtDigLong	16LFlexDigLong	17RAddLong	18RGlutMax	19RGlutMed	20RIliopsoas	21RSemiMemb	22RBicFemLong	23RRecFem	24RVastMed	25RVastLat	26RGasMed	27RTibAnt	28RTibPost	29RPeroneusLong	30RSol	31RExtDigLong	32RFlexDigLong
51.29	0.032654	0.5983	-0.020447	-0.023499	0.008087	-0.05249	0.073853	0.017395	0.24521	-0.020905	-0.081329	0.003052	0.1947	-0.030212	0.24338	-0.001068	0.021973	0.22842	0.59815	0.30182	-0.08728	-0.30411	-0.36606	-0.20248	0.21271	-0.002899	0.048981	0.003662	-1.521	0.061646	-0.003662	0.00061
51.291	0.022583	0.62027	-0.02243	-0.001221	-0.002747	-0.057373	0.058899	0.018616	0.25543	0.019226	-0.075226	0.001526	0.18677	-0.16357	0.11246	0.002441	0.015106	0.36041	0.002289	0.22949	-0.066528	-0.18372	-0.20126	-0.20065	0.27023	0.001831	0.026245	0.003357	-0.90073	-0.029755	-0.004883	-0.005798
51.292	0.015717	0.62057	-0.034027	-0.011444	-0.001068	-0.021973	0.060272	0.016174	0.24841	0.079193	-0.052643	0.004425	0.065918	-0.16846	0.20874	-0.014496	0.015564	0.55206	-0.34103	0.094299	0.005035	-0.18997	-0.15442	-0.18829	0.1149	-0.019073	-0.11551	0.00351	0.086823	0.073242	-0.00061	-0.019379
51.293	0.014954	0.58701	-0.040741	0.000916	-0.004578	0.00412	0.049133	0.02121	0.25192	0.077057	-0.021667	0.007324	0.003052	-0.13367	0.10605	-0.014954	0.027313	0.71243	0.13687	0.00885	-0.070801	-0.14771	-0.10407	-0.10498	0.1181	-0.041504	-0.005035	-0.000305	-1.2535	0.087891	-0.003052	-0.001373
51.294	0.006866	0.58716	-0.059509	-0.003357	-0.002136	0.003815	0.053558	0.014801	0.25284	0.033875	0.060577	0.003204	0.003052	-0.10407	0.12833	-0.010071	0.057678	0.8461	0.53329	-0.013123	-0.21133	-0.088196	-0.020447	-0.13351	0.3537	-0.041046	0.093231	0.001984	-2.043	0.058746	-0.001831	-0.001221
51.295	0.007935	0.58533	-0.058289	-0.002899	-0.003662	-0.012665	0.063629	0.010223	0.24948	0.000763	0.071869	0.005188	-0.017242	-0.095062	0.10254	-0.044708	0.029297	0.99396	0.20737	-0.00061	-0.51544	0.15427	-0.011597	0.0354	0.30716	-0.03006	0.002441	-0.00473	0.66971	0.007172	-0.004272	-0.001068
51.296	-0.004578	0.55344	-0.059509	0.009308	-0.004883	-0.039368	0.059662	0.027771	0.26047	-0.006104	0.11566	0.003357	-0.001221	-0.056305	0.040588	-0.012054	-0.003357	0.91293	0.22553	-0.01297	-0.40375	0.45166	0.062866	0.24048	0.26871	-0.010834	-0.059967	-0.012817	1.5616	0.011444	0.000305	-0.001678
51.297	-0.00473	0.51102	-0.058289	0.024261	-0.009155	-0.013885	0.1062	-0.028076	0.25177	-0.013428	0.091553	-0.000153	0.077362	-0.004425	-0.13138	-0.014191	-0.088196	0.8165	0.025177	-0.010223	0.10895	0.35812	-0.03479	0.10681	0.20447	0.017395	0.057983	-0.011902	0.22003	0.015106	-0.006409	-0.007324
51.298	-0.003052	0.46524	-0.04776	0.036621	-0.005951	-0.014648	0.10681	0.039215	0.25177	-0.027771	0.00885	0.00061	0.10819	0.004425	0.32364	-0.015869	-0.10712	0.73944	0.05661	-0.02121	-0.010376	0.31982	-0.17914	-0.15457	0.26245	0.048981	0.13153	-0.029907	0.068817	0.1001	-0.00412	0
51.299	0.000458	0.42053	-0.062103	0.015411	-0.002594	0.001373	0.11047	0.016632	0.25604	-0.01297	-0.001526	0.007019	0.079803	0.006866	0.23025	-0.010071	-0.078735	0.6163	0.02655	0.013885	0.32532	0.19348	-0.23438	0.10376	0.094757	0.052185	0.17212	-0.02121	-0.20142	0.13321	-0.001373	-0.009308
51.3	-0.005188	0.36423	-0.075836	-0.018616	-0.010223	-0.000305	0.11063	0.015259	0.2533	-0.020599	-0.066376	0.001678	0.090179	-0.006561	0.31555	-0.011139	-0.03479	0.5127	-0.18127	0.007019	0.37857	0.21027	0.14358	0.20767	-0.3566	0.010986	0.11017	0.072021	-0.52338	0.072479	-0.002441	0.002899
51.301	-0.00824	0.30838	-0.045929	-0.024414	-0.019073	0.015411	0.10956	0.018311	0.24674	-0.000916	-0.001984	-0.002136	0.017242	-0.056152	0.15198	-0.020905	0.009766	0.40512	-0.19028	0.033264	0.19165	0.22263	0.24414	0.28076	-0.61737	-0.019836	-0.026855	0.017548	-0.035248	0.030975	0.001831	-0.011444
51.302	-0.007782	0.28748	-0.068817	-0.018311	-0.021515	0.013428	0.088043	0.015106	0.24368	-0.009613	0.000305	0.002747	-0.016632	-0.032654	-0.019073	-0.015717	0.036621	0.24384	-0.26657	-0.021973	0.066528	0.19592	0.31128	0.233	-0.2655	-0.00061	-0.16861	0.000763	0.52399	-0.07782	-0.005493	-0.000916
51.303	0.012054	0.25269	-0.055847	-0.005035	-0.016479	0.033722	0.092163	0.013733	0.2478	-0.044098	-0.10483	-0.00473	0.016785	0.009155	-0.10437	-0.019684	0.024261	0.13931	0.21057	-0.065155	-0.12466	0.13016	0.25665	0.16586	-0.062561	0.018005	-0.17181	-0.00824	0.25482	-0.16739	-0.002441	-0.000305
51.304	0.02533	0.20508	-0.065918	-0.000458	-0.01297	0.050812	0.072784	0.022736	0.24765	-0.041962	-0.032349	0.000305	0.020905	0.068512	-0.021667	-0.033264	0.003357	0.01297	0.98175	-0.042267	0.027466	0.031891	0.20187	0.13565	-0.12375	0	-0.07431	0.001526	-0.73044	0.00824	-0.001373	0.001373
51.305	0.025482	0.17014	-0.05722	-0.008545	-0.010376	0.030975	0.072784	0.012665	0.25146	-0.010529	-0.098724	0.002747	0.028839	0.062714	0.041656	-0.02655	-0.020447	-0.065308	0.6459	-0.032501	0.07431	-0.010223	0.12802	0.029907	-0.13336	-0.007324	-0.000305	-0.016632	-0.21088	0.083466	-0.001373	-0.005188
